<svg width="56" height="57" viewBox="0 0 56 57" fill="none" xmlns="http://www.w3.org/2000/svg">
<path fill-rule="evenodd" clip-rule="evenodd" d="M55.9999 25.5984C55.9031 24.4809 55.7407 23.3771 55.5152 22.291C55.5134 22.2828 55.5116 22.2746 55.5099 22.2663C55.5066 22.2503 55.5033 22.2343 55.4998 22.2183C54.3912 16.9512 51.7845 12.1117 47.8891 8.21629C42.5907 2.91788 35.5461 9.91821e-05 28.0528 9.91821e-05C20.5597 9.91821e-05 13.5149 2.91788 8.21645 8.21629C6.92773 9.50501 5.78156 10.8974 4.78222 12.3738C4.48502 12.7694 4.21885 13.1872 3.9822 13.6245C1.38635 17.9379 0 22.8889 0 28.0529C0 35.5462 2.91803 42.5908 8.21645 47.8892C13.5149 53.1876 20.5597 56.1059 28.0528 56.1059C35.5461 56.1059 42.5907 53.1876 47.8891 47.8892C50.3898 45.3887 52.3595 42.499 53.7431 39.3569C53.9121 39.0087 54.0597 38.6522 54.1866 38.2887C55.1537 35.8175 55.7672 33.205 55.9999 30.5136V25.5984ZM53.4618 28.8774C53.5301 29.0376 53.7668 28.9917 53.7721 28.8178C53.7789 28.5983 53.7839 28.4129 53.7839 28.1987C53.7839 28.0355 53.6217 28.0135 53.5092 28.1606C53.4673 28.2154 53.4322 28.2613 53.4151 28.284C53.3318 28.395 53.3162 28.5426 53.3719 28.6695C53.4025 28.7389 53.4325 28.8082 53.4618 28.8774ZM51.6304 25.4452C51.8433 25.7782 52.335 25.7623 52.5268 25.4169C53.3212 23.9849 53.4156 22.9679 53.1078 22.3864C52.7389 21.691 51.5305 21.1216 49.2253 21.1216H49.2164C48.8491 21.1219 48.651 21.5551 48.8932 21.8311C49.8797 22.9553 50.763 24.1121 51.5305 25.2905C51.564 25.3422 51.5973 25.3937 51.6304 25.4452ZM51.6225 38.4088C51.7585 38.0992 51.888 37.7866 52.0116 37.472C52.6201 35.6792 52.5833 33.6233 51.9192 31.4159C51.7845 30.9684 51.2204 30.8263 50.8896 31.1563L50.8823 31.1639C50.2102 31.835 49.4796 32.5109 48.6972 33.1878C48.3319 33.5037 48.0955 33.9437 48.0377 34.423C47.7279 36.9937 47.2498 39.4457 46.618 41.7067C46.4909 42.1609 46.9579 42.5514 47.3848 42.3509C49.2873 41.456 50.711 40.17 51.5595 38.5369C51.5729 38.5109 51.5857 38.4846 51.5984 38.4583C51.6064 38.4418 51.6144 38.4252 51.6225 38.4088ZM46.2477 46.2478C46.449 46.0465 46.6466 45.8421 46.8401 45.6352C47.0419 45.4198 46.8219 45.0794 46.5411 45.1697C46.1947 45.2815 45.839 45.3837 45.4741 45.4763C45.3864 45.4987 45.3142 45.5613 45.2799 45.6451C45.1351 46.0003 44.9862 46.349 44.8321 46.6888C44.7952 46.7703 44.7581 46.851 44.7208 46.9312C44.5899 47.2123 44.9398 47.4701 45.1711 47.264C45.538 46.9368 45.897 46.598 46.2477 46.2478ZM40.6218 43.8071C41.4667 43.7773 42.2743 43.7054 43.0423 43.5942C43.3973 43.5427 43.6914 43.2939 43.8065 42.9543C44.4814 40.9612 45.0188 38.7655 45.4068 36.4331C45.4494 36.177 45.1603 35.9968 44.9504 36.1495C42.1519 38.1847 38.9551 40.1698 35.529 41.9858C35.0406 42.2446 34.5519 42.4974 34.0634 42.7447C33.8159 42.8698 33.8684 43.2389 34.1414 43.2891C36.3805 43.7014 38.5603 43.8793 40.6218 43.8071ZM35.9581 52.3021C38.1511 52.3429 40.4134 50.3145 42.2503 46.7017C42.4058 46.3964 42.1683 46.0359 41.827 46.0629C41.4589 46.0921 41.0842 46.1136 40.7035 46.1272C40.3783 46.1385 40.0503 46.1441 39.7201 46.1441C36.681 46.1441 33.4372 45.662 30.145 44.7381C30.0234 44.7037 29.8938 44.7128 29.7782 44.763L29.7222 44.7878C29.4528 44.9048 29.3243 45.2162 29.4361 45.4881L29.4381 45.4929C31.1981 49.7776 33.5747 52.2597 35.9581 52.3021ZM28.0528 53.7843C29.1719 53.7843 30.2803 53.7124 31.3725 53.5721C31.7257 53.5267 31.8606 53.0834 31.5889 52.8531C29.9447 51.4607 28.4804 49.2718 27.2906 46.3749C27.2901 46.374 27.2898 46.3731 27.2894 46.3721C27.2891 46.3714 27.2889 46.3708 27.2886 46.3701C27.1766 46.0977 26.8693 45.9612 26.594 46.0661C23.5239 47.2383 20.5917 48.1087 17.954 48.6161C16.7139 48.855 15.5695 49.0079 14.5258 49.0757C14.4685 49.0793 14.4034 49.0828 14.3338 49.0861C13.998 49.1015 13.8779 49.54 14.1605 49.7221C18.2676 52.3669 23.0513 53.7843 28.0528 53.7843ZM24.3307 30.1106C21.4164 31.8547 18.7598 33.6969 16.4924 35.5432C18.283 36.8458 20.2297 38.0503 22.2987 39.1255C23.3669 39.6803 24.4445 40.1879 25.5253 40.6489C24.802 37.4165 24.3933 33.838 24.3307 30.1106ZM13.1508 38.5531C9.59927 42.146 8.90016 44.51 9.44108 45.5305C9.98982 46.5657 12.399 47.3213 17.5152 46.3363C19.6325 45.9289 21.9558 45.2727 24.3948 44.404C24.3949 44.4042 24.3951 44.4042 24.3953 44.4043C24.3954 44.4044 24.3956 44.4044 24.3958 44.4045C24.424 44.3944 24.4525 44.3836 24.4811 44.3735C24.7094 44.2918 24.9385 44.2087 25.1688 44.1232C25.221 44.104 25.2735 44.0836 25.3257 44.0642C25.5155 43.9933 25.7057 43.9211 25.8967 43.848L25.9339 43.8336C26.0013 43.8076 26.0688 43.7815 26.1364 43.7551C26.1699 43.742 26.2035 43.7291 26.237 43.7162C26.2675 43.7045 26.298 43.6927 26.3286 43.6807C26.3285 43.6806 26.3284 43.6804 26.3283 43.6802C26.3283 43.68 26.3282 43.6798 26.3281 43.6797C27.4662 43.2331 28.6235 42.7442 29.7918 42.2156L29.7944 42.2164C29.8635 42.1852 29.9327 42.1534 30.0019 42.1217C30.0405 42.1039 30.0792 42.0862 30.1178 42.0685L30.1834 42.0385C31.5935 41.3916 33.0174 40.689 34.4416 39.9341C38.7753 37.6375 42.7178 35.0729 45.9066 32.496C46.0262 31.1576 46.1001 29.7897 46.1248 28.4026C46.1642 26.2096 46.0799 24.0606 45.8803 21.9968C45.866 21.9822 45.8511 21.9678 45.8369 21.9534C45.8421 21.9501 45.8475 21.9471 45.8528 21.944C45.8582 21.9409 45.8636 21.9378 45.8687 21.9345C45.7484 20.7046 45.5862 19.5057 45.3848 18.3456C45.3863 18.3471 45.3879 18.3485 45.3895 18.3499C45.3904 18.3506 45.3913 18.3514 45.3922 18.3522C44.9204 15.634 44.2301 13.1327 43.3392 10.9638C41.5792 6.67907 39.2026 4.19726 36.8192 4.15462C36.7983 4.15411 36.7773 4.15411 36.7564 4.15411C34.7358 4.15411 32.6617 5.90125 30.9178 9.02086C30.7289 9.35918 30.884 9.78707 31.2461 9.92533C32.9387 10.5717 34.6278 11.3296 36.2924 12.1945C38.7626 13.4781 41.0701 14.9412 43.1639 16.5362C43.7477 16.9807 44.1433 17.6268 44.272 18.3494C44.3744 18.9246 44.467 19.5102 44.5492 20.1051C44.6666 20.9566 44.1256 21.7592 43.29 21.9612C38.8197 23.0431 33.6141 25.0902 28.3982 27.8291L28.3951 27.8309C28.105 27.9832 27.7586 27.7663 27.7694 27.4388C27.7869 26.917 27.8111 26.2606 27.8295 25.9341C27.8449 25.6616 28.0048 25.4174 28.2478 25.2933C33.5159 22.6074 38.7556 20.6153 43.2633 19.5826C40.9013 17.6014 38.1872 15.7954 35.2219 14.2549C33.69 13.4587 32.1387 12.7598 30.5861 12.1589L30.5868 12.1579C30.5551 12.1456 30.5234 12.1336 30.4917 12.1216C30.4656 12.1117 30.4394 12.1018 30.4132 12.0918C30.3532 12.0686 30.2929 12.0456 30.2328 12.0229C30.0408 11.9505 29.8489 11.8793 29.6566 11.81L29.6049 11.7915C28.8672 11.5261 28.1305 11.2827 27.3958 11.0632C27.3659 11.0542 27.3361 11.0456 27.3062 11.037C27.2824 11.0302 27.2585 11.0233 27.2346 11.0162C27.2067 11.0081 27.1789 10.9998 27.1511 10.9916C27.1093 10.9792 27.0675 10.9668 27.0257 10.9547L27.0249 10.9554C23.8458 10.0381 20.7199 9.55749 17.8071 9.55749C17.5019 9.55749 17.1994 9.56278 16.8989 9.57338C12.1502 9.74015 8.56966 11.2158 6.64592 13.7622C6.41482 14.1068 6.1928 14.4563 5.97936 14.8105C5.97742 14.8138 5.97553 14.8172 5.97362 14.8207C5.97131 14.8248 5.96898 14.8291 5.96649 14.8332C4.29227 18.0434 4.99188 22.3021 7.93589 26.8227C9.43401 29.1234 11.4158 31.3408 13.7704 33.3823C14.2437 33.7928 14.9428 33.8077 15.4323 33.4169C17.7817 31.5416 20.5011 29.6812 23.4623 27.9262C24.0085 27.6025 24.3536 27.0253 24.3822 26.391C24.6054 21.3913 25.4425 16.6666 26.7991 12.6842C26.9119 12.3529 27.2686 12.1728 27.6024 12.2775C27.9324 12.3809 28.2629 12.4889 28.5937 12.6019C28.933 12.7177 29.1139 13.0861 28.9981 13.4254C27.7465 17.0925 26.9598 21.4519 26.7209 26.0913L26.7222 26.0905C26.6881 26.7399 26.6644 27.3946 26.6525 28.0541C26.6483 28.2956 26.6465 28.536 26.6452 28.7767L26.6442 28.777C26.6442 28.8034 26.6447 28.8299 26.6442 28.8567C26.6441 28.8699 26.6439 28.8848 26.6437 28.9009C26.6428 28.9665 26.6417 29.0502 26.6427 29.1039C26.6449 29.2273 26.6454 29.3513 26.6459 29.4753C26.6462 29.5621 26.6466 29.6489 26.6475 29.7354C26.6478 29.7585 26.6478 29.7816 26.6479 29.8047C26.6479 29.8278 26.648 29.8508 26.6483 29.8737L26.6498 29.8729C26.7005 33.7176 27.1311 37.3882 27.9059 40.6489C27.9135 40.6807 27.9269 40.7347 27.9438 40.8018C28.0793 41.3389 27.802 41.8962 27.2908 42.1094C26.8208 42.3059 26.3536 42.4949 25.8896 42.6766C25.3305 42.8961 24.7071 42.8769 24.1594 42.6304C23.1754 42.1874 22.2147 41.6982 21.2282 41.1855C19.0028 40.0293 16.911 38.7257 14.986 37.3131C14.0364 36.616 13.1258 35.8934 12.2637 35.1464C9.73803 32.9577 7.60665 30.5718 5.99046 28.0897C4.78979 26.2462 3.92089 24.4231 3.38704 22.6606C3.30883 22.4023 2.93619 22.4192 2.88044 22.6833C2.51133 24.4292 2.32161 26.2265 2.32161 28.0529C2.32161 33.1616 3.80156 38.0422 6.55686 42.2073C6.81773 42.6019 7.41365 42.5555 7.61094 42.1256C8.30702 40.6083 9.54956 38.9214 11.325 37.0991C11.3403 37.0832 11.3928 37.0302 11.4632 36.9598C11.7844 36.6382 12.2963 36.6119 12.65 36.8978C12.7903 37.0108 12.9316 37.1238 13.0739 37.2356C13.4879 37.5618 13.5234 38.1767 13.1526 38.5513L13.1508 38.5531ZM28.0528 2.32171C22.6206 2.32171 17.4461 3.99492 13.1157 7.09586C12.8622 7.27726 13.0282 7.6784 13.335 7.62189C14.4272 7.42056 15.5897 7.29618 16.8174 7.25304C20.1454 7.13622 23.7474 7.62113 27.4084 8.65175C27.9493 8.80414 28.5213 8.56294 28.791 8.06971C29.896 6.04808 31.1446 4.48916 32.4886 3.43558C32.7848 3.20322 32.6602 2.72916 32.2888 2.66785C30.9019 2.43902 29.4866 2.32171 28.0528 2.32171ZM48.9783 25.6682C48.8072 25.428 48.4288 25.5539 48.4363 25.8488C48.458 26.7064 48.4618 27.572 48.4462 28.4439C48.4386 28.8696 48.4265 29.2932 48.4101 29.7152C48.401 29.9468 48.6803 30.0695 48.8468 29.9085C48.981 29.7791 49.1127 29.6499 49.2419 29.521C49.5959 29.1673 49.9218 28.8262 50.2223 28.4962C50.4115 28.2888 50.4448 27.9827 50.3058 27.7388C50.0828 27.3475 49.8429 26.9536 49.585 26.5575C49.391 26.2596 49.1884 25.9631 48.9783 25.6682ZM46.2477 9.85822C46.0895 9.70003 45.9295 9.54412 45.7678 9.39072C45.5506 9.18434 45.208 9.42377 45.3261 9.69902C45.3803 9.82517 45.4338 9.95258 45.4868 10.0815C46.4157 12.3431 47.139 14.9344 47.6393 17.7396C47.7514 18.3678 48.3059 18.8149 48.9439 18.8043C49.8646 18.7889 50.6961 18.8482 51.4351 18.9809C51.7729 19.0417 52.0431 18.7087 51.9142 18.3905C50.6371 15.2351 48.7272 12.3378 46.2477 9.85822Z" fill="#B0702C"/>
</svg>
